<svg width="160" height="19" viewBox="0 0 160 19" fill="none" xmlns="http://www.w3.org/2000/svg">
<path d="M0.804688 18H3.39453V7.34766H3.44141L7.01562 15.5508H9.17188L12.7461 7.34766H12.8047V18H15.3945V0.914062H12.9453L8.14062 12.0469L3.24219 0.914062H0.804688V18ZM22.8463 9.45703C22.8463 11.4102 22.9048 12.7305 23.022 13.418C23.0845 13.7852 23.1627 14.0898 23.2564 14.332C23.358 14.5664 23.4713 14.8125 23.5963 15.0703C24.0103 15.8594 24.6744 16.5547 25.5884 17.1562C26.4869 17.7812 27.608 18.1094 28.9517 18.1406C30.3111 18.1094 31.4439 17.7812 32.3502 17.1562C33.2486 16.5547 33.897 15.8594 34.2955 15.0703C34.5845 14.6562 34.7838 14.1055 34.8931 13.418C34.9947 12.7305 35.0455 11.4102 35.0455 9.45703C35.0455 7.47266 34.9947 6.14453 34.8931 5.47266C34.7838 4.80078 34.5845 4.25781 34.2955 3.84375C33.897 3.05469 33.2486 2.35156 32.3502 1.73438C31.4439 1.10938 30.3111 0.789062 28.9517 0.773438C27.608 0.789062 26.4869 1.10938 25.5884 1.73438C24.6744 2.35156 24.0103 3.05469 23.5963 3.84375C23.3384 4.25781 23.147 4.80078 23.022 5.47266C22.9048 6.14453 22.8463 7.47266 22.8463 9.45703ZM25.4478 9.45703C25.4478 7.77734 25.5103 6.63281 25.6353 6.02344C25.7447 5.44531 25.9673 4.97266 26.3033 4.60547C26.5767 4.25391 26.9361 3.96094 27.3814 3.72656C27.8189 3.5 28.3423 3.37891 28.9517 3.36328C29.5689 3.37891 30.1041 3.5 30.5572 3.72656C30.9869 3.96094 31.3306 4.25391 31.5884 4.60547C31.9244 4.97266 32.1548 5.44531 32.2798 6.02344C32.397 6.63281 32.4556 7.77734 32.4556 9.45703C32.4556 11.1367 32.397 12.2734 32.2798 12.8672C32.1548 13.4609 31.9244 13.9414 31.5884 14.3086C31.3306 14.6602 30.9869 14.9453 30.5572 15.1641C30.1041 15.4219 29.5689 15.5508 28.9517 15.5508C28.3423 15.5508 27.8189 15.4219 27.3814 15.1641C26.9361 14.9453 26.5767 14.6602 26.3033 14.3086C25.9673 13.9414 25.7447 13.4609 25.6353 12.8672C25.5103 12.2734 25.4478 11.1367 25.4478 9.45703ZM41.9347 9.45703C41.9347 11.4102 41.9933 12.7305 42.1105 13.418C42.173 13.7852 42.2511 14.0898 42.3448 14.332C42.4464 14.5664 42.5597 14.8125 42.6847 15.0703C43.0988 15.8594 43.7628 16.5547 44.6769 17.1562C45.5753 17.7812 46.6964 18.1094 48.0402 18.1406C49.3995 18.1094 50.5323 17.7812 51.4386 17.1562C52.337 16.5547 52.9855 15.8594 53.3839 15.0703C53.673 14.6562 53.8722 14.1055 53.9816 13.418C54.0831 12.7305 54.1339 11.4102 54.1339 9.45703C54.1339 7.47266 54.0831 6.14453 53.9816 5.47266C53.8722 4.80078 53.673 4.25781 53.3839 3.84375C52.9855 3.05469 52.337 2.35156 51.4386 1.73438C50.5323 1.10938 49.3995 0.789062 48.0402 0.773438C46.6964 0.789062 45.5753 1.10938 44.6769 1.73438C43.7628 2.35156 43.0988 3.05469 42.6847 3.84375C42.4269 4.25781 42.2355 4.80078 42.1105 5.47266C41.9933 6.14453 41.9347 7.47266 41.9347 9.45703ZM44.5363 9.45703C44.5363 7.77734 44.5988 6.63281 44.7238 6.02344C44.8331 5.44531 45.0558 4.97266 45.3917 4.60547C45.6652 4.25391 46.0245 3.96094 46.4698 3.72656C46.9073 3.5 47.4308 3.37891 48.0402 3.36328C48.6573 3.37891 49.1925 3.5 49.6456 3.72656C50.0753 3.96094 50.4191 4.25391 50.6769 4.60547C51.0128 4.97266 51.2433 5.44531 51.3683 6.02344C51.4855 6.63281 51.5441 7.77734 51.5441 9.45703C51.5441 11.1367 51.4855 12.2734 51.3683 12.8672C51.2433 13.4609 51.0128 13.9414 50.6769 14.3086C50.4191 14.6602 50.0753 14.9453 49.6456 15.1641C49.1925 15.4219 48.6573 15.5508 48.0402 15.5508C47.4308 15.5508 46.9073 15.4219 46.4698 15.1641C46.0245 14.9453 45.6652 14.6602 45.3917 14.3086C45.0558 13.9414 44.8331 13.4609 44.7238 12.8672C44.5988 12.2734 44.5363 11.1367 44.5363 9.45703ZM61.6091 18H64.1989V5.85938H64.2458L71.9684 18H74.4177V0.914062H71.8278V13.0547H71.7809L64.0466 0.914062H61.6091V18ZM92.6844 18H99.8797C101.223 18 102.345 17.5508 103.243 16.6523C104.149 15.793 104.61 14.625 104.626 13.1484C104.626 12.2578 104.403 11.4336 103.958 10.6758C103.481 9.94141 102.778 9.45312 101.848 9.21094V9.16406C102.341 8.92969 102.755 8.66797 103.091 8.37891C103.427 8.10547 103.684 7.81641 103.864 7.51172C104.216 6.87109 104.384 6.19922 104.368 5.49609C104.368 4.12109 103.942 3.01562 103.091 2.17969C102.247 1.35156 100.985 0.929687 99.3055 0.914062H92.6844V18ZM99.2586 10.418C100.22 10.4336 100.923 10.6875 101.368 11.1797C101.813 11.6797 102.036 12.2812 102.036 12.9844C102.036 13.6719 101.813 14.2656 101.368 14.7656C100.923 15.2734 100.22 15.5352 99.2586 15.5508H95.2742V10.418H99.2586ZM99.0125 3.22266C99.9578 3.23828 100.653 3.46875 101.098 3.91406C101.552 4.39062 101.778 4.97266 101.778 5.66016C101.778 6.34766 101.552 6.91797 101.098 7.37109C100.653 7.86328 99.9578 8.10938 99.0125 8.10938H95.2742V3.22266H99.0125ZM114.796 11.8828L117.269 4.41797H117.316L119.788 11.8828H114.796ZM121.851 18H124.581L118.37 0.914062H116.202L109.992 18H112.734L114.046 14.1797H120.527L121.851 18ZM131.072 13.8516L129.373 15.7969C131.193 17.3594 133.369 18.1406 135.9 18.1406C139.814 18.0938 141.814 16.4375 141.9 13.1719C141.9 11.9609 141.521 10.8984 140.764 9.98438C139.998 9.05469 138.814 8.48047 137.213 8.26172C136.4 8.16016 135.76 8.07031 135.291 7.99219C134.447 7.83594 133.834 7.55469 133.451 7.14844C133.068 6.75 132.877 6.30469 132.877 5.8125C132.893 4.99219 133.178 4.375 133.732 3.96094C134.264 3.5625 134.928 3.36328 135.725 3.36328C137.264 3.39453 138.674 3.83203 139.955 4.67578L141.396 2.54297C139.826 1.41016 137.978 0.820312 135.853 0.773438C134.088 0.789062 132.725 1.25 131.764 2.15625C130.771 3.07031 130.275 4.27344 130.275 5.76562C130.275 7.00781 130.67 8.0625 131.459 8.92969C132.225 9.77344 133.342 10.3164 134.81 10.5586C135.631 10.6758 136.385 10.7812 137.072 10.875C138.572 11.1328 139.314 11.8984 139.299 13.1719C139.268 14.7266 138.143 15.5195 135.924 15.5508C134.049 15.5352 132.432 14.9688 131.072 13.8516ZM149.083 18H159.993V15.5508H151.672V10.5352H158.774V8.23828H151.672V3.36328H159.993V0.914062H149.083V18Z" fill="black"/>
</svg>
